<?xml version="1.0" encoding="utf-8"?>
<!-- Generator: Adobe Illustrator 20.1.0, SVG Export Plug-In . SVG Version: 6.00 Build 0)  -->
<svg version="1.1" id="Layer_1" xmlns="http://www.w3.org/2000/svg" xmlns:xlink="http://www.w3.org/1999/xlink" x="0px" y="0px"
	 viewBox="0 0 200 200" style="enable-background:new 0 0 200 200;" xml:space="preserve">
<style type="text/css">
	.st0{display:none;}
	.st1{display:inline;fill:#333333;}
	.st2{fill:#333333;}
</style>
<g transform="translate(0,-952.36218)" class="st0">
	<path class="st1" d="M99.6,985.9c-1.8,0.2-3.1,1.7-3,3.5v6.7c-6.4,4.4-13,6.9-20.5,6.9c-7.4,0-15.2-1-23.6-4
		c-0.8-0.3-1.6-0.6-2.4-0.9c-1.7-0.7-3.7,0.1-4.4,1.8l-20.5,47.7c-0.2,0.4-0.3,0.9-0.3,1.4c0,13.1,10.7,23.9,23.9,23.9
		s23.9-10.7,23.9-23.9c0-0.5-0.1-0.9-0.3-1.3l-17.4-41c7.4,2.1,14.5,3.1,21,3.1c7.4,0,14.2-2.2,20.5-5.8v87.6H62.5
		c-0.1,0-0.2,0-0.3,0c-1.8,0.2-3.1,1.6-3.1,3.4v20.5c0,1.9,1.5,3.4,3.4,3.4h75c1.9,0,3.4-1.5,3.4-3.4V1095c0-1.9-1.5-3.4-3.4-3.4
		h-34.1V1004c6.2,3.6,13,5.8,20.5,5.8c6.5,0,13.7-1.1,21-3.1l-17.4,41c-0.2,0.4-0.3,0.9-0.3,1.3c0,13.1,10.7,23.9,23.9,23.9
		s23.9-10.7,23.9-23.9c0-0.5-0.1-0.9-0.3-1.4l-20.5-47.7c-0.7-1.7-2.7-2.5-4.4-1.8c-0.8,0.3-1.6,0.6-2.4,0.9c-8.4,3-16.2,4-23.6,4
		c-7.5,0-14.1-2.5-20.5-6.9v-6.7c0-1.9-1.5-3.4-3.3-3.5C99.9,985.8,99.8,985.9,99.6,985.9z M49,1009.7l16.8,39.8
		c-0.3,9.2-7.7,16.6-16.9,16.6c-8.3,0-15.1-5.8-16.6-13.6h23.4c1.9,0,3.4-1.5,3.5-3.4c0-1.9-1.5-3.4-3.4-3.5c0,0-0.1,0-0.1,0H33.6
		L49,1009.7z M151,1009.7l17,39.8c-0.3,9.2-7.7,16.6-16.9,16.6c-8.3,0-15.1-5.8-16.6-13.6H158c1.9,0,3.4-1.5,3.5-3.4
		c0-1.9-1.5-3.4-3.4-3.5c0,0-0.1,0-0.1,0h-22.1L151,1009.7z M65.9,1098.4h68.2v13.6H65.9V1098.4z"/>
</g>
<g>
	<g transform="translate(-93.000000, -93.000000)">
		<g transform="translate(93.000000, 93.000000)">
			<path class="st2" d="M100,63.2c-20.3,0-36.8,16.5-36.8,36.8c0,20.3,16.5,36.8,36.8,36.8s36.8-16.5,36.8-36.8
				C136.8,79.7,120.3,63.2,100,63.2z M100,130.6c-16.9,0-30.6-13.7-30.6-30.6c0-16.9,13.7-30.6,30.6-30.6s30.6,13.7,30.6,30.6
				C130.6,116.9,116.9,130.6,100,130.6z"/>
			<path class="st2" d="M96.9,66.3h6.1V47.9h-6.1V66.3z M127.7,80.5l3.1,5.3l15.9-9.2l-3.1-5.3L127.7,80.5z M130.7,114.2l-3.1,5.3
				l15.9,9.2l3.1-5.3L130.7,114.2z M103.1,133.7h-6.1v18.4h6.1V133.7z M72.4,119.5l-3.1-5.3l-15.9,9.2l3.1,5.3L72.4,119.5z
				 M69.3,85.8l3.1-5.3l-15.9-9.2l-3.1,5.3L69.3,85.8z"/>
			<g>
				<path class="st2" d="M62.6,60.7l-16-9.2c-1.5-0.8-3.3-0.3-4.1,1.1L30.2,73.9c-0.9,1.5-0.4,3.3,1.1,4.1l16,9.2
					c1.5,0.8,3.3,0.3,4.1-1.1l12.3-21.2C64.6,63.4,64.1,61.6,62.6,60.7z M47.7,80.4l-10.6-6.1l9.2-15.9l10.6,6.1L47.7,80.4z"/>
				<path class="st2" d="M51.4,113.9c-0.9-1.5-2.7-2-4.1-1.1l-16,9.2c-1.5,0.8-1.9,2.7-1.1,4.1l12.3,21.2c0.9,1.5,2.7,2,4.1,1.1
					l16-9.2c1.5-0.8,1.9-2.7,1.1-4.1L51.4,113.9z M46.2,141.6l-9.2-15.9l10.6-6.1l9.2,15.9L46.2,141.6z"/>
				<path class="st2" d="M148.6,86.1c0.9,1.5,2.7,2,4.1,1.1l16-9.2c1.5-0.8,1.9-2.7,1.1-4.1l-12.3-21.2c-0.9-1.5-2.7-2-4.1-1.1
					l-16,9.2c-1.5,0.8-1.9,2.7-1.1,4.1L148.6,86.1z M153.8,58.4l9.2,15.9l-10.6,6.1l-9.2-15.9L153.8,58.4z"/>
				<path class="st2" d="M168.7,122l-16-9.2c-1.5-0.8-3.3-0.3-4.1,1.1l-12.3,21.2c-0.9,1.5-0.4,3.3,1.1,4.1l16,9.2
					c1.5,0.8,3.3,0.3,4.1-1.1l12.3-21.2C170.7,124.6,170.1,122.8,168.7,122z M153.8,141.6l-10.6-6.1l9.2-15.9l10.6,6.1L153.8,141.6z
					"/>
				<path class="st2" d="M112.3,26.5H87.7c-1.7,0-3,1.3-3,3V48c0,1.7,1.4,3,3,3h24.5c1.7,0,3-1.3,3-3V29.5
					C115.3,27.8,113.9,26.5,112.3,26.5z M109.2,44.9H90.8V32.6h18.4V44.9z"/>
				<path class="st2" d="M112.3,149H87.7c-1.7,0-3,1.3-3,3v18.5c0,1.7,1.4,3,3,3h24.5c1.7,0,3-1.3,3-3V152
					C115.3,150.3,113.9,149,112.3,149z M109.2,167.4H90.8v-12.2h18.4V167.4z"/>
			</g>
		</g>
	</g>
</g>
</svg>
