<?xml version="1.0" encoding="utf-8"?>
<!-- Generator: Adobe Illustrator 20.1.0, SVG Export Plug-In . SVG Version: 6.00 Build 0)  -->
<svg version="1.1" id="Layer_1" xmlns="http://www.w3.org/2000/svg" xmlns:xlink="http://www.w3.org/1999/xlink" x="0px" y="0px"
	 viewBox="0 0 200 200" style="enable-background:new 0 0 200 200;" xml:space="preserve">
<style type="text/css">
	.st0{fill:#333333;}
	.st1{display:none;}
	.st2{display:inline;}
</style>
<path class="st0" d="M151.1,120c12.9,0,23.4-10.5,23.4-23.4c0-0.4-0.1-0.8-0.2-1.2l-20.5-47.7c-0.6-1.4-2.3-2.1-3.8-1.5
	c-0.8,0.3-1.6,0.6-2.4,0.9c-7.6,2.7-15.4,4-23.8,4c-7.2,0-14-2.3-20.7-7l-0.2-0.1v-7c0-1.6-1.2-2.9-2.8-3c-0.1,0-0.3,0-0.4,0
	c-1.5,0.2-2.6,1.4-2.6,3v7l-0.2,0.1c-6.8,4.7-13.6,7-20.7,7c-8.4,0-16.2-1.3-23.8-4c-0.8-0.3-1.6-0.6-2.4-0.9
	c-1.5-0.6-3.2,0.1-3.8,1.5L25.7,95.4c-0.2,0.4-0.2,0.8-0.2,1.2c0,12.9,10.5,23.4,23.4,23.4c12.9,0,23.4-10.5,23.4-23.4
	c0-0.4-0.1-0.8-0.2-1.1l-17.8-42l1,0.3c7.4,2.1,14.5,3.1,20.9,3.1c6.9,0,13.7-1.9,20.2-5.7l0.7-0.4v88.9H62.5c-0.1,0-0.1,0-0.2,0
	c0,0-0.1,0-0.1,0c-1.5,0.1-2.6,1.4-2.6,2.9v20.5c0,1.6,1.3,2.9,2.9,2.9h75c1.6,0,2.9-1.3,2.9-2.9v-20.5c0-1.6-1.3-2.9-2.9-2.9h-34.6
	V50.8l0.7,0.4c6.6,3.8,13.3,5.7,20.2,5.7c6.5,0,13.5-1.1,20.9-3.1l1-0.3l-17.8,42c-0.2,0.4-0.2,0.7-0.2,1.1
	C127.8,109.5,138.3,120,151.1,120z M66.3,97l0,0.1c-0.3,9.6-7.9,17.1-17.4,17.1c-8.3,0-15.5-5.9-17.1-14l-0.1-0.6h24c0,0,0,0,0,0
	c1.6,0,2.9-1.3,2.9-2.9c0-0.8-0.3-1.5-0.8-2.1s-1.3-0.9-2-0.9h-23L49,56L66.3,97z M134.6,145.6v14.6H65.4v-14.6H134.6z M133.9,99.5
	h24c0,0,0,0,0,0c1.6,0,2.9-1.3,2.9-2.9c0-0.8-0.3-1.5-0.8-2.1s-1.3-0.9-2-0.9h-22.9L151,56l17.6,41l0,0.1
	c-0.3,9.6-7.9,17.1-17.4,17.1c-8.3,0-15.5-5.9-17.1-14L133.9,99.5z"/>
<g class="st1">
	<g transform="translate(-93.000000, -93.000000)" class="st2">
		<g transform="translate(93.000000, 93.000000)">
			<path class="st0" d="M100,63.2c-20.3,0-36.8,16.5-36.8,36.8c0,20.3,16.5,36.8,36.8,36.8s36.8-16.5,36.8-36.8
				C136.8,79.7,120.3,63.2,100,63.2z M100,130.6c-16.9,0-30.6-13.7-30.6-30.6c0-16.9,13.7-30.6,30.6-30.6s30.6,13.7,30.6,30.6
				C130.6,116.9,116.9,130.6,100,130.6z"/>
			<path class="st0" d="M96.9,66.3h6.1V47.9h-6.1V66.3z M127.7,80.5l3.1,5.3l15.9-9.2l-3.1-5.3L127.7,80.5z M130.7,114.2l-3.1,5.3
				l15.9,9.2l3.1-5.3L130.7,114.2z M103.1,133.7h-6.1v18.4h6.1V133.7z M72.4,119.5l-3.1-5.3l-15.9,9.2l3.1,5.3L72.4,119.5z
				 M69.3,85.8l3.1-5.3l-15.9-9.2l-3.1,5.3L69.3,85.8z"/>
			<g>
				<path class="st0" d="M62.6,60.7l-16-9.2c-1.5-0.8-3.3-0.3-4.1,1.1L30.2,73.9c-0.9,1.5-0.4,3.3,1.1,4.1l16,9.2
					c1.5,0.8,3.3,0.3,4.1-1.1l12.3-21.2C64.6,63.4,64.1,61.6,62.6,60.7z M47.7,80.4l-10.6-6.1l9.2-15.9l10.6,6.1L47.7,80.4z"/>
				<path class="st0" d="M51.4,113.9c-0.9-1.5-2.7-2-4.1-1.1l-16,9.2c-1.5,0.8-1.9,2.7-1.1,4.1l12.3,21.2c0.9,1.5,2.7,2,4.1,1.1
					l16-9.2c1.5-0.8,1.9-2.7,1.1-4.1L51.4,113.9z M46.2,141.6l-9.2-15.9l10.6-6.1l9.2,15.9L46.2,141.6z"/>
				<path class="st0" d="M148.6,86.1c0.9,1.5,2.7,2,4.1,1.1l16-9.2c1.5-0.8,1.9-2.7,1.1-4.1l-12.3-21.2c-0.9-1.5-2.7-2-4.1-1.1
					l-16,9.2c-1.5,0.8-1.9,2.7-1.1,4.1L148.6,86.1z M153.8,58.4l9.2,15.9l-10.6,6.1l-9.2-15.9L153.8,58.4z"/>
				<path class="st0" d="M168.7,122l-16-9.2c-1.5-0.8-3.3-0.3-4.1,1.1l-12.3,21.2c-0.9,1.5-0.4,3.3,1.1,4.1l16,9.2
					c1.5,0.8,3.3,0.3,4.1-1.1l12.3-21.2C170.7,124.6,170.1,122.8,168.7,122z M153.8,141.6l-10.6-6.1l9.2-15.9l10.6,6.1L153.8,141.6z
					"/>
				<path class="st0" d="M112.3,26.5H87.7c-1.7,0-3,1.3-3,3V48c0,1.7,1.4,3,3,3h24.5c1.7,0,3-1.3,3-3V29.5
					C115.3,27.8,113.9,26.5,112.3,26.5z M109.2,44.9H90.8V32.6h18.4V44.9z"/>
				<path class="st0" d="M112.3,149H87.7c-1.7,0-3,1.3-3,3v18.5c0,1.7,1.4,3,3,3h24.5c1.7,0,3-1.3,3-3V152
					C115.3,150.3,113.9,149,112.3,149z M109.2,167.4H90.8v-12.2h18.4V167.4z"/>
			</g>
		</g>
	</g>
</g>
</svg>
