<?xml version="1.0" encoding="utf-8"?>
<!-- Generator: Adobe Illustrator 20.1.0, SVG Export Plug-In . SVG Version: 6.00 Build 0)  -->
<svg version="1.1" id="Layer_1" xmlns="http://www.w3.org/2000/svg" xmlns:xlink="http://www.w3.org/1999/xlink" x="0px" y="0px"
	 viewBox="0 0 600 200" style="enable-background:new 0 0 600 200;" xml:space="preserve">
<style type="text/css">
	.st0{fill:#FFFFFF;}
</style>
<rect x="7.9" y="77.4" class="st0" width="16.5" height="3.8"/>
<rect x="7.9" y="61.1" class="st0" width="16.5" height="3.8"/>
<rect x="7.9" y="94.7" class="st0" width="21.8" height="3.8"/>
<rect x="7.9" y="110.1" class="st0" width="13.8" height="3.8"/>
<rect x="7.9" y="126.9" class="st0" width="18.8" height="3.8"/>
<rect x="7.9" y="142.8" class="st0" width="16.5" height="3.8"/>
<path class="st0" d="M0,54v16.2v2v14.3v2v14.3v2v14.3v2v14.3v2V154h100v-16.5v-2v-14.3v-2v-14.4v-2V88.5v-2V72.2v-2V54H0z
	 M43.7,135.5v-14.3h26.5v14.3H43.7z M70.1,137.5V152H43.7v-14.5H70.1z M43.7,119.2v-14.4h26.5v14.3L43.7,119.2L43.7,119.2z
	 M43.7,102.8V88.5h26.5v14.3H43.7z M43.7,86.5V72.2h26.5v14.3H43.7z M43.7,70.2V56h26.5v14.2H43.7z M2,56h39.6v14.2H2V56z M2,72.2
	h39.6v14.3H2V72.2z M2,88.5h39.6v14.3H2V88.5z M2,104.8h39.6v14.3H2V104.8z M2,121.2h39.6v14.3H2V121.2z M2,137.5h39.6V152H2V137.5z
	 M98,152H72.1v-14.5H98V152z M98,135.5H72.1v-14.3H98V135.5z M98,119.2H72.1v-14.4H98V119.2z M98,102.8H72.1V88.5H98V102.8z
	 M98,86.5H72.1V72.2H98V86.5z M72.1,70.2V56H98v14.2H72.1z"/>
<path class="st0" d="M60.3,75.4l1.4,1.1c0.1,0,0.1,0.1,0,0.2L56,83.3h-0.1h-0.1L52,80.2c-0.1,0-0.1-0.1,0-0.2l1.2-1.4
	c0-0.1,0.1-0.1,0.2,0l2.3,1.9L60.3,75.4C60.2,75.3,60.3,75.3,60.3,75.4"/>
<path class="st0" d="M88.8,59l1.4,1.1c0.1,0,0.1,0.1,0,0.2L84.5,67h-0.1h-0.1l-3.8-3.1c-0.1,0-0.1-0.1,0-0.2l1.2-1.4
	c0-0.1,0.1-0.1,0.2,0l2.3,1.9l4.5-5.1C88.7,59,88.7,59,88.8,59"/>
<path class="st0" d="M88.8,91.7l1.4,1.1c0.1,0,0.1,0.1,0,0.2l-5.7,6.6h-0.1h-0.1l-3.8-3.1c-0.1,0-0.1-0.1,0-0.2l1.2-1.4
	c0-0.1,0.1-0.1,0.2,0l2.3,1.9L88.8,91.7C88.7,91.7,88.7,91.7,88.8,91.7"/>
<path class="st0" d="M60.3,140.7l1.4,1.1c0.1,0,0.1,0.1,0,0.2l-5.7,6.6h-0.1h-0.1l-3.8-3.1c-0.1,0-0.1-0.1,0-0.2l1.2-1.4
	c0-0.1,0.1-0.1,0.2,0l2.3,1.9L60.3,140.7C60.2,140.7,60.3,140.7,60.3,140.7"/>
<path class="st0" d="M88.7,108l1.4,1.1c0.1,0,0.1,0.1,0,0.2l-5.7,6.6h-0.1h-0.1l-3.8-3.1c-0.1,0-0.1-0.1,0-0.2l1.2-1.4
	c0-0.1,0.1-0.1,0.2,0l2.3,1.9L88.7,108C88.6,107.9,88.7,107.9,88.7,108"/>
<path class="st0" d="M88.8,124.4l1.4,1.1c0.1,0,0.1,0.1,0,0.2l-5.7,6.6h-0.1h-0.1l-3.8-3.1c-0.1,0-0.1-0.1,0-0.2l1.2-1.4
	c0-0.1,0.1-0.1,0.2,0l2.3,1.9L88.8,124.4C88.7,124.3,88.7,124.3,88.8,124.4"/>
<path class="st0" d="M351.2,132.7c0-0.4-0.2-0.8-0.6-1s-0.7-0.4-1.1-0.3l-8.7,0.9l0.6-0.9c5.2-8.1,8-17.5,8-27.1
	c0-22.9-15.5-42.9-37.6-48.6c-0.8-0.2-1.7,0.3-1.9,1.1c-0.2,0.8,0.3,1.7,1.1,1.9c20.8,5.4,35.3,24.2,35.3,45.7
	c0,9.1-2.6,18-7.6,25.7l-0.6,0.9l-2.9-8.7c-0.1-0.4-0.4-0.7-0.8-0.9c-0.2-0.1-0.4-0.2-0.7-0.2c-0.2,0-0.3,0-0.5,0.1
	c-0.8,0.3-1.2,1.1-1,1.9l4.2,12.7l13.3-1.3C350.7,134.3,351.3,133.6,351.2,132.7z"/>
<path class="st0" d="M297.7,90.5c-0.8,0-1.5,0.7-1.5,1.5v13.5c0,0.4,0.2,0.8,0.4,1.1c0.3,0.3,0.7,0.4,1.1,0.4h10.8
	c0.8,0,1.5-0.7,1.5-1.5c0-0.8-0.7-1.5-1.5-1.5h-9.3V92C299.2,91.2,298.5,90.5,297.7,90.5z"/>
<path class="st0" d="M299.1,81c-12.8,0-23.2,10.4-23.2,23.2c0,12.8,10.4,23.2,23.2,23.2c12.8,0,23.2-10.4,23.2-23.2
	C322.2,91.4,311.8,81,299.1,81z M313.3,118.5c-3.8,3.8-8.9,5.9-14.2,5.9c-5.4,0-10.4-2.1-14.2-5.9c-3.8-3.8-5.9-8.9-5.9-14.2
	c0-5.4,2.1-10.4,5.9-14.2c3.8-3.8,8.9-5.9,14.2-5.9c5.4,0,10.4,2.1,14.2,5.9c3.8,3.8,5.9,8.9,5.9,14.2
	C319.2,109.6,317.1,114.7,313.3,118.5z"/>
<path class="st0" d="M255,128.4l0.6,1c9,15.5,25.6,25.1,43.5,25.1c0,0,0,0,0,0c12.4,0,24.3-4.5,33.5-12.8c0.6-0.6,0.7-1.5,0.1-2.2
	c-0.3-0.3-0.6-0.5-1.1-0.5c-0.4,0-0.8,0.1-1.1,0.4c-8.7,7.8-19.8,12-31.5,12c-17.3,0-33.2-9.5-41.5-24.7l-0.4-0.8l9.5,0.6
	c0.4,0,0.8-0.1,1.1-0.4c0.3-0.3,0.5-0.6,0.5-1.1c0-0.4-0.1-0.8-0.4-1.1c-0.3-0.3-0.6-0.5-1.1-0.5l-13.3-0.9l-3.8,12.8
	c-0.2,0.8,0.2,1.7,1,1.9c0.8,0.2,1.7-0.2,1.9-1L255,128.4z"/>
<path class="st0" d="M295.2,67.2c0.3,0.2,0.8,0.3,1.2,0.2c0.4-0.1,0.7-0.3,1-0.7l7.2-11.3l-9.4-9.5c-0.3-0.3-0.7-0.4-1.1-0.4
	c-0.4,0-0.8,0.1-1.1,0.4c-0.3,0.3-0.4,0.7-0.5,1.1s0.2,0.8,0.4,1.1l5.8,5.9l-1.2,0c-13.1,0.4-25.4,5.8-34.6,15.2
	c-9.2,9.4-14.2,21.9-14.2,35.1c0,4.1,0.5,8.1,1.5,12.1c0.1,0.4,0.3,0.7,0.7,0.9s0.8,0.3,1.2,0.2c0.8-0.2,1.3-1,1.1-1.9
	c-0.9-3.7-1.4-7.5-1.4-11.3c0-12.6,4.9-24.5,13.8-33.4C274.6,62,286.4,57,299,57l0.9,0l-5.1,8C294.3,65.8,294.5,66.7,295.2,67.2z"/>
<g>
	<path class="st0" d="M550,154c27.6,0,50-22.4,50-50c0-11.7-4.1-22.5-10.8-30.9l6.1-6.1c0.3-0.3,0.3-0.5,0.1-0.8
		c-0.1-0.3-0.4-0.4-0.7-0.4l-7.4,1.3l1.3-7.4c0-0.3-0.1-0.5-0.4-0.7c-0.3-0.1-0.5-0.1-0.8,0.1l-5.9,5.9c-8.8-7-19.7-11.2-31.6-11.2
		c-27.6,0-50,22.4-50,50S522.4,154,550,154z M550,56.6c11.8,0,22.5,4.3,30.8,11.4v3.7c-0.1,0-0.1,0.1-0.3,0.1l-7.8,7.8
		c-5.9-5.7-13.9-9.1-22.9-9.1c-18.3,0-33.3,15-33.3,33.4s15,33.4,33.4,33.4s33.4-15,33.4-33.4c0-8.7-3.3-16.4-8.7-22.5l7.8-7.8
		c0.1-0.1,0.1-0.3,0.3-0.3h3.4c7,8.3,11.2,18.9,11.2,30.5c0,26.2-21.2,47.4-47.4,47.4s-47.4-21.2-47.4-47.4S523.8,56.6,550,56.6z
		 M549.2,105.2c0.3,0.3,0.7,0.4,0.9,0.4c0.3,0,0.7-0.1,0.9-0.4l8.3-8.3c1.6,2,2.5,4.5,2.5,7.1c0,6.6-5.3,11.8-11.8,11.8
		s-11.8-5.3-11.8-11.8s5.3-11.8,11.8-11.8c2.9,0,5.5,1.1,7.6,2.8l-8.3,8.3C548.8,103.7,548.8,104.7,549.2,105.2z M550,89.5
		c-8,0-14.5,6.4-14.5,14.5s6.4,14.5,14.5,14.5s14.5-6.4,14.5-14.5c0-3.4-1.2-6.6-3.2-9.1l11.6-11.6c4.9,5.4,7.9,12.6,7.9,20.5
		c0,17-13.8,30.8-30.8,30.8S519.2,121,519.2,104S533,73.2,550,73.2c8.2,0,15.5,3.2,20.9,8.3l-11.6,11.6
		C557,90.8,553.7,89.5,550,89.5z"/>
</g>
<g>
	<g>
		<path class="st0" d="M154.7,95.4h40.5v2h-40.5V95.4z M154.7,110.5h40.5v2h-40.5V110.5z"/>
		<path class="st0" d="M195.5,112.8h-41v-2.5h41V112.8z M155,112.3h40v-1.5h-40V112.3z M195.5,97.7h-41v-2.5h41V97.7z M155,97.2h40
			v-1.5h-40V97.2z"/>
	</g>
</g>
<g>
	<path class="st0" d="M426.4,86.4v16.2h15.5v2.6h-15.5v16.3h-2.8v-16.3h-15.5v-2.6h15.5V86.4H426.4z"/>
</g>
</svg>
