<?xml version="1.0" encoding="utf-8"?>
<!-- Generator: Adobe Illustrator 20.1.0, SVG Export Plug-In . SVG Version: 6.00 Build 0)  -->
<svg version="1.1" id="Layer_1" xmlns="http://www.w3.org/2000/svg" xmlns:xlink="http://www.w3.org/1999/xlink" x="0px" y="0px"
	 viewBox="0 0 555 100" style="enable-background:new 0 0 555 100;" xml:space="preserve">
<style type="text/css">
	.st0{fill:#1568FB;}
	.st1{opacity:0.5;fill:#1568FB;}
</style>
<path class="st0" d="M0.4,4h38.5c22.5,0,36.1,13.3,36.1,32.6v0.3c0,21.8-17,33.2-38.1,33.2H21.1v28.3H0.4V4z M37.6,51.6
	C48,51.6,54,45.4,54,37.3v-0.3c0-9.3-6.5-14.3-16.8-14.3h-16v28.8H37.6z"/>
<path class="st0" d="M82.6,77.6v-0.3c0-15.8,12-23,29.1-23c7.3,0,12.5,1.2,17.7,3v-1.2c0-8.5-5.3-13.2-15.5-13.2
	c-7.8,0-13.3,1.5-19.9,3.9l-5.1-15.6c8-3.5,15.8-5.8,28-5.8c11.2,0,19.3,3,24.4,8.1c5.4,5.4,7.8,13.3,7.8,23v41.9h-19.8v-7.8
	c-5,5.5-11.9,9.2-21.8,9.2C93.8,99.7,82.6,91.9,82.6,77.6z M129.6,72.9v-3.6c-3.5-1.6-8.1-2.7-13.1-2.7c-8.8,0-14.2,3.5-14.2,10v0.3
	c0,5.5,4.6,8.8,11.2,8.8C123.2,85.6,129.6,80.3,129.6,72.9z"/>
<path class="st0" d="M167.1,0h21.6v18.2h-21.6V0z M167.6,26.1h20.5v72.2h-20.5V26.1z"/>
<path class="st0" d="M207.4,26.1h20.5v14.6c4.2-10,10.9-16.4,23-15.9v21.4h-1.1c-13.6,0-22,8.2-22,25.5v26.7h-20.5V26.1z"/>
<path class="st0" d="M379.3,0h21.6v18.2h-21.6V0z M379.8,26.1h20.5v72.2h-20.5V26.1z"/>
<path class="st0" d="M413.9,88.8l8.8-13.5c7.8,5.7,16,8.6,22.8,8.6c5.9,0,8.6-2.2,8.6-5.4v-0.3c0-4.4-7-5.9-15-8.4
	c-10.1-3-21.6-7.7-21.6-21.7V48c0-14.7,11.9-22.9,26.4-22.9c9.2,0,19.1,3.1,27,8.4l-7.8,14.2c-7.1-4.2-14.3-6.7-19.5-6.7
	c-5,0-7.5,2.2-7.5,5v0.3c0,4,6.9,5.9,14.7,8.6c10.1,3.4,21.8,8.2,21.8,21.4v0.3c0,16-12,23.3-27.6,23.3
	C434.8,99.7,423.5,96.4,413.9,88.8z"/>
<path class="st0" d="M483.7,62.7v-0.3c0-20.6,14.7-37.6,35.7-37.6c24.1,0,35.2,18.7,35.2,39.2c0,1.6-0.1,3.5-0.3,5.4h-50.3
	c2,9.3,8.5,14.2,17.7,14.2c6.9,0,11.9-2.2,17.5-7.4L551,86.5c-6.7,8.4-16.4,13.5-29.5,13.5C499.8,100,483.7,84.8,483.7,62.7z
	 M534.7,56.6c-1.2-9.2-6.6-15.4-15.2-15.4c-8.5,0-14,6.1-15.6,15.4H534.7z"/>
<polygon class="st1" points="299.9,99.6 256.8,25 343,25 "/>
<polygon class="st1" points="330.2,99.6 287.1,25 373.3,25 "/>
</svg>
